<mxfile host="app.diagrams.net" agent="Mozilla/5.0 (Windows NT 10.0; Win64; x64) AppleWebKit/537.36 (KHTML, like Gecko) Chrome/134.0.0.0 Safari/537.36" version="26.1.0">
  <diagram id="C5RBs43oDa-KdzZeNtuy" name="Page-1">
    <mxGraphModel dx="2261" dy="780" grid="1" gridSize="10" guides="1" tooltips="1" connect="1" arrows="1" fold="1" page="1" pageScale="1" pageWidth="827" pageHeight="1169" math="0" shadow="0">
      <root>
        <mxCell id="WIyWlLk6GJQsqaUBKTNV-0" />
        <mxCell id="WIyWlLk6GJQsqaUBKTNV-1" parent="WIyWlLk6GJQsqaUBKTNV-0" />
        <mxCell id="GhIMQ8BFAWhUpijL78Sw-0" style="edgeStyle=orthogonalEdgeStyle;rounded=0;orthogonalLoop=1;jettySize=auto;html=1;entryX=0.5;entryY=0;entryDx=0;entryDy=0;" edge="1" parent="WIyWlLk6GJQsqaUBKTNV-1" source="GhIMQ8BFAWhUpijL78Sw-1" target="GhIMQ8BFAWhUpijL78Sw-3">
          <mxGeometry relative="1" as="geometry" />
        </mxCell>
        <mxCell id="GhIMQ8BFAWhUpijL78Sw-1" value="start" style="rounded=1;whiteSpace=wrap;html=1;" vertex="1" parent="WIyWlLk6GJQsqaUBKTNV-1">
          <mxGeometry x="360" y="60" width="120" height="60" as="geometry" />
        </mxCell>
        <mxCell id="GhIMQ8BFAWhUpijL78Sw-2" style="edgeStyle=orthogonalEdgeStyle;rounded=0;orthogonalLoop=1;jettySize=auto;html=1;entryX=0.5;entryY=0;entryDx=0;entryDy=0;" edge="1" parent="WIyWlLk6GJQsqaUBKTNV-1" source="GhIMQ8BFAWhUpijL78Sw-3" target="GhIMQ8BFAWhUpijL78Sw-8">
          <mxGeometry relative="1" as="geometry" />
        </mxCell>
        <mxCell id="GhIMQ8BFAWhUpijL78Sw-3" value="int num&lt;div&gt;int quotientNum&lt;/div&gt;&lt;div&gt;int remainderNum&lt;/div&gt;" style="shape=parallelogram;perimeter=parallelogramPerimeter;whiteSpace=wrap;html=1;fixedSize=1;" vertex="1" parent="WIyWlLk6GJQsqaUBKTNV-1">
          <mxGeometry x="360" y="160" width="120" height="60" as="geometry" />
        </mxCell>
        <mxCell id="GhIMQ8BFAWhUpijL78Sw-4" style="edgeStyle=orthogonalEdgeStyle;rounded=0;orthogonalLoop=1;jettySize=auto;html=1;" edge="1" parent="WIyWlLk6GJQsqaUBKTNV-1" source="GhIMQ8BFAWhUpijL78Sw-8">
          <mxGeometry relative="1" as="geometry">
            <mxPoint x="640" y="375" as="targetPoint" />
          </mxGeometry>
        </mxCell>
        <mxCell id="GhIMQ8BFAWhUpijL78Sw-5" value="true" style="edgeLabel;html=1;align=center;verticalAlign=middle;resizable=0;points=[];" vertex="1" connectable="0" parent="GhIMQ8BFAWhUpijL78Sw-4">
          <mxGeometry x="-0.1961" y="-3" relative="1" as="geometry">
            <mxPoint as="offset" />
          </mxGeometry>
        </mxCell>
        <mxCell id="GhIMQ8BFAWhUpijL78Sw-6" value="" style="edgeStyle=orthogonalEdgeStyle;rounded=0;orthogonalLoop=1;jettySize=auto;html=1;" edge="1" parent="WIyWlLk6GJQsqaUBKTNV-1" source="GhIMQ8BFAWhUpijL78Sw-8" target="GhIMQ8BFAWhUpijL78Sw-11">
          <mxGeometry relative="1" as="geometry" />
        </mxCell>
        <mxCell id="GhIMQ8BFAWhUpijL78Sw-7" value="false" style="edgeLabel;html=1;align=center;verticalAlign=middle;resizable=0;points=[];" vertex="1" connectable="0" parent="GhIMQ8BFAWhUpijL78Sw-6">
          <mxGeometry x="-0.2847" y="-1" relative="1" as="geometry">
            <mxPoint as="offset" />
          </mxGeometry>
        </mxCell>
        <mxCell id="GhIMQ8BFAWhUpijL78Sw-8" value="quotientNum&amp;gt;remainderNum" style="rhombus;whiteSpace=wrap;html=1;" vertex="1" parent="WIyWlLk6GJQsqaUBKTNV-1">
          <mxGeometry x="328.75" y="280" width="182.5" height="190" as="geometry" />
        </mxCell>
        <mxCell id="GhIMQ8BFAWhUpijL78Sw-9" style="edgeStyle=orthogonalEdgeStyle;rounded=0;orthogonalLoop=1;jettySize=auto;html=1;entryX=1;entryY=0.75;entryDx=0;entryDy=0;" edge="1" parent="WIyWlLk6GJQsqaUBKTNV-1" target="GhIMQ8BFAWhUpijL78Sw-10">
          <mxGeometry relative="1" as="geometry">
            <mxPoint x="700" y="415" as="sourcePoint" />
            <Array as="points">
              <mxPoint x="700" y="740" />
              <mxPoint x="485" y="740" />
            </Array>
          </mxGeometry>
        </mxCell>
        <mxCell id="GhIMQ8BFAWhUpijL78Sw-10" value="end" style="rounded=1;whiteSpace=wrap;html=1;" vertex="1" parent="WIyWlLk6GJQsqaUBKTNV-1">
          <mxGeometry x="365" y="730" width="120" height="60" as="geometry" />
        </mxCell>
        <mxCell id="GhIMQ8BFAWhUpijL78Sw-19" style="edgeStyle=orthogonalEdgeStyle;rounded=0;orthogonalLoop=1;jettySize=auto;html=1;" edge="1" parent="WIyWlLk6GJQsqaUBKTNV-1" source="GhIMQ8BFAWhUpijL78Sw-11" target="GhIMQ8BFAWhUpijL78Sw-18">
          <mxGeometry relative="1" as="geometry">
            <Array as="points">
              <mxPoint y="510" />
              <mxPoint y="625" />
              <mxPoint x="82" y="625" />
              <mxPoint x="82" y="630" />
            </Array>
          </mxGeometry>
        </mxCell>
        <mxCell id="GhIMQ8BFAWhUpijL78Sw-11" value="quotientNum==remainderNum" style="rhombus;whiteSpace=wrap;html=1;" vertex="1" parent="WIyWlLk6GJQsqaUBKTNV-1">
          <mxGeometry x="80" y="415" width="182.5" height="190" as="geometry" />
        </mxCell>
        <mxCell id="GhIMQ8BFAWhUpijL78Sw-12" style="edgeStyle=orthogonalEdgeStyle;rounded=0;orthogonalLoop=1;jettySize=auto;html=1;entryX=0.5;entryY=0;entryDx=0;entryDy=0;" edge="1" parent="WIyWlLk6GJQsqaUBKTNV-1" source="GhIMQ8BFAWhUpijL78Sw-13" target="GhIMQ8BFAWhUpijL78Sw-10">
          <mxGeometry relative="1" as="geometry" />
        </mxCell>
        <mxCell id="GhIMQ8BFAWhUpijL78Sw-13" value="Beraberdir!" style="shape=document;whiteSpace=wrap;html=1;boundedLbl=1;" vertex="1" parent="WIyWlLk6GJQsqaUBKTNV-1">
          <mxGeometry x="305" y="550" width="120" height="80" as="geometry" />
        </mxCell>
        <mxCell id="GhIMQ8BFAWhUpijL78Sw-14" style="edgeStyle=orthogonalEdgeStyle;rounded=0;orthogonalLoop=1;jettySize=auto;html=1;entryX=0.008;entryY=0.663;entryDx=0;entryDy=0;entryPerimeter=0;" edge="1" parent="WIyWlLk6GJQsqaUBKTNV-1" source="GhIMQ8BFAWhUpijL78Sw-11" target="GhIMQ8BFAWhUpijL78Sw-13">
          <mxGeometry relative="1" as="geometry">
            <Array as="points">
              <mxPoint x="220" y="590" />
              <mxPoint x="220" y="590" />
            </Array>
          </mxGeometry>
        </mxCell>
        <mxCell id="GhIMQ8BFAWhUpijL78Sw-15" value="true" style="edgeLabel;html=1;align=center;verticalAlign=middle;resizable=0;points=[];" vertex="1" connectable="0" parent="GhIMQ8BFAWhUpijL78Sw-14">
          <mxGeometry x="-0.0802" y="-2" relative="1" as="geometry">
            <mxPoint as="offset" />
          </mxGeometry>
        </mxCell>
        <mxCell id="GhIMQ8BFAWhUpijL78Sw-16" value="false" style="edgeLabel;html=1;align=center;verticalAlign=middle;resizable=0;points=[];" vertex="1" connectable="0" parent="WIyWlLk6GJQsqaUBKTNV-1">
          <mxGeometry x="40" y="510" as="geometry" />
        </mxCell>
        <mxCell id="GhIMQ8BFAWhUpijL78Sw-17" value="tam hisse boyukdur" style="shape=document;whiteSpace=wrap;html=1;boundedLbl=1;" vertex="1" parent="WIyWlLk6GJQsqaUBKTNV-1">
          <mxGeometry x="630" y="350" width="120" height="80" as="geometry" />
        </mxCell>
        <mxCell id="GhIMQ8BFAWhUpijL78Sw-20" style="edgeStyle=orthogonalEdgeStyle;rounded=0;orthogonalLoop=1;jettySize=auto;html=1;entryX=0;entryY=0.5;entryDx=0;entryDy=0;" edge="1" parent="WIyWlLk6GJQsqaUBKTNV-1" source="GhIMQ8BFAWhUpijL78Sw-18" target="GhIMQ8BFAWhUpijL78Sw-10">
          <mxGeometry relative="1" as="geometry">
            <Array as="points">
              <mxPoint x="2" y="720" />
              <mxPoint x="214" y="720" />
              <mxPoint x="214" y="760" />
            </Array>
          </mxGeometry>
        </mxCell>
        <mxCell id="GhIMQ8BFAWhUpijL78Sw-18" value="kesr hisse boyukdur" style="shape=document;whiteSpace=wrap;html=1;boundedLbl=1;" vertex="1" parent="WIyWlLk6GJQsqaUBKTNV-1">
          <mxGeometry x="-58" y="590" width="120" height="80" as="geometry" />
        </mxCell>
      </root>
    </mxGraphModel>
  </diagram>
</mxfile>
